<svg version="1.1" viewBox="0 0 200 200" xmlns="http://www.w3.org/2000/svg" xmlns:xlink="http://www.w3.org/1999/xlink">
<g fill="#A0A0A0">
<path d="M30.00,80.00 L170.00,80.00 L170.00,190.00 L30.00,190.00 L30.00,80.00 Z"/>
<path d="M60.00,90.00 C60.00,90.00 80.00,90.00 80.00,90.00 C80.00,90.00 80.00,40.00 80.00,40.00 C80.00,40.00 80.00,30.00 90.00,30.00 C100.00,30.00 110.00,30.00 110.00,30.00 C110.00,30.00 120.00,30.00 120.00,40.00 C120.00,50.00 120.00,90.00 120.00,90.00 C120.00,90.00 140.00,90.00 140.00,90.00 C140.00,90.00 140.00,30.00 140.00,30.00 C140.00,30.00 140.00,10.00 120.00,10.00 C100.00,10.00 80.00,10.00 80.00,10.00 C80.00,10.00 60.00,10.00 60.00,30.00 C60.00,50.00 60.00,90.00 60.00,90.00 Z"/>
</g>
</svg>
