<svg version="1.1" viewBox="0 0 200 200" xmlns="http://www.w3.org/2000/svg" xmlns:xlink="http://www.w3.org/1999/xlink">
<g fill="#A0A0A0">
<path d="M150.00,35.00 L180.00,35.00 L180.00,175.00 L150.00,175.00 L150.00,35.00 Z"/>
<path d="M20.00,35.00 L130.00,15.00 L130.00,175.00 L20.00,175.00 L20.00,35.00 M61.00,160.00 C61.00,160.00 41.00,160.00 41.00,160.00 C41.00,160.00 41.00,50.00 41.00,50.00 C41.00,50.00 111.00,40.00 111.00,80.00 C111.00,120.00 61.00,120.00 61.00,120.00 C61.00,120.00 61.00,160.00 61.00,160.00 M56.00,63.00 C56.00,63.00 96.00,63.00 96.00,83.00 C96.00,103.00 56.00,103.00 56.00,103.00 C56.00,103.00 56.00,63.00 56.00,63.00 Z" fill-rule="evenodd"/>
</g>
</svg>
