<svg version="1.1" viewBox="0 0 200 200" xmlns="http://www.w3.org/2000/svg" xmlns:xlink="http://www.w3.org/1999/xlink">
<g fill="#A0A0A0">
<path d="M50,90 L150,90 L150,110 L50,110 L50,90 Z"/>
<path d="M90,50 C90,50 30,50 30,50 C30,50 10,50 10,100 C10,150 30,150 30,150 C30,150 90,150 90,150 C90,150 90,130 90,130 C90,130 40,130 40,130 C40,130 30,130 30,100 C30,70 40,70 40,70 C40,70 90,70 90,70 C90,70 90,50 90,50 Z"/>
<path d="M110,50 C110,50 170,50 170,50 C170,50 190,50 190,100 C190,150 170,150 170,150 C170,150 110,150 110,150 C110,150 110,130 110,130 C110,130 160,130 160,130 C160,130 170,130 170,100 C170,70 160,70 160,70 C160,70 110,70 110,70 C110,70 110,50 110,50 Z"/>
</g>
</svg>
