<svg version="1.1" viewBox="0 0 200 200" xmlns="http://www.w3.org/2000/svg" xmlns:xlink="http://www.w3.org/1999/xlink">
<g fill="#A0A0A0">
<path d="M30.00,80.00 L170.00,80.00 L170.00,190.00 L30.00,190.00 L30.00,80.00 Z"/>
<path d="M60.78,93.16 C60.78,93.16 52.58,33.73 52.58,33.73 C52.58,33.73 49.85,13.91 69.66,11.18 C89.47,8.45 89.47,8.45 109.29,5.72 C129.10,2.99 131.83,22.80 131.83,22.80 C131.83,22.80 134.56,42.61 134.56,42.61 C134.56,42.61 114.75,45.34 114.75,45.34 C114.75,45.34 113.38,35.44 113.38,35.44 C113.38,35.44 112.02,25.53 102.11,26.90 C92.21,28.26 82.30,29.63 82.30,29.63 C82.30,29.63 72.39,30.99 73.76,40.90 C75.12,50.81 80.59,90.43 80.59,90.43 C80.59,90.43 60.78,93.16 60.78,93.16 Z"/>
</g>
</svg>
