<svg version="1.1" viewBox="0 0 200 200" xmlns="http://www.w3.org/2000/svg" xmlns:xlink="http://www.w3.org/1999/xlink">
<g fill="#A0A0A0">
<path d="M10.00,70.00 L40.00,70.00 L100.00,10.00 L100.00,190.00 L40.00,130.00 L10.00,130.00 L10.00,70.00 Z"/>
<path d="M126.97,58.80 C126.97,58.80 150.00,70.23 150.00,100.41 C150.00,127.95 126.95,141.75 126.95,141.75 C126.95,141.75 126.97,58.80 126.97,58.80 Z"/>
<path d="M142.76,36.06 C142.76,36.06 154.96,18.11 154.96,18.11 C154.96,18.11 190.83,47.50 190.83,100.41 C190.83,153.41 154.65,181.98 154.65,181.98 C154.65,181.98 143.36,164.60 143.36,164.60 C143.36,164.60 170.25,137.73 170.25,100.83 C170.25,58.64 142.76,36.06 142.76,36.06 Z"/>
</g>
</svg>
