<svg version="1.1" viewBox="0 0 200 200" xmlns="http://www.w3.org/2000/svg" xmlns:xlink="http://www.w3.org/1999/xlink">
<g fill="#A0A0A0">
<path d="M30.00,180.00 L20.00,170.00 L20.00,50.00 L30.00,40.00 L60.00,40.00 L80.00,20.00 L120.00,20.00 L140.00,40.00 L170.00,40.00 L180.00,50.00 L180.00,170.00 L170.00,180.00 L30.00,180.00 Z
M 100 60 A 50 50 0 1 1 100 160 A 50 50 0 1 1 100 60 M 100 80 A 30 30 0 1 1 100 140 A 30 30 0 1 1 100 80
M 150 50 A 10 10 0 1 1 150 70 A 10 10 0 1 1 150 50" fill-rule="evenodd"/>
</g>
</svg>
