<svg version="1.1" viewBox="0 0 200 200" xmlns="http://www.w3.org/2000/svg" xmlns:xlink="http://www.w3.org/1999/xlink">
<g fill="#A0A0A0">
<path d="M15.02,148.05 C15.51,146.14 21.77,130.99 24.79,124.31 C30.25,112.83 50.61,74.62 59.80,58.55 C63.98,51.63 72.03,38.63 75.69,33.11 C77.42,30.63 81.01,25.45 84.39,22.16 C87.86,18.83 94.14,14.77 96.93,14.05 C99.60,13.43 105.06,14.77 108.17,16.75 C111.34,18.83 118.19,25.45 120.05,28.15 C126.96,38.07 143.89,66.30 153.49,83.49 C158.25,92.39 167.00,109.21 171.00,117.14 C174.41,124.31 180.60,138.41 182.32,142.86 C184.03,147.47 185.28,152.43 185.47,156.81 C185.60,160.63 183.95,166.21 182.19,167.94 C180.66,169.36 174.57,172.12 170.61,173.25 C161.31,175.84 146.72,177.05 139.84,177.49 C124.43,178.11 87.79,178.36 70.71,177.99 C63.00,177.67 45.08,176.50 43.21,176.24 C38.18,175.53 28.34,173.29 24.85,172.07 C21.47,170.86 16.67,167.97 15.46,165.96 C14.18,163.69 13.50,157.00 14.13,152.70 C14.41,150.84 14.71,149.30 15.02,148.05 M25.00,142.36 C25.51,140.35 32.01,124.98 35.25,118.04 C38.94,110.51 47.86,93.51 52.63,84.62 C63.87,64.73 74.24,48.05 77.84,42.68 C80.87,38.35 84.55,34.16 88.30,31.32 C89.96,30.09 93.05,28.44 94.50,27.99 C95.93,27.60 98.60,27.60 100.03,27.99 C102.93,28.88 109.98,34.16 113.32,37.97 C114.20,38.98 124.13,54.06 128.21,60.73 C132.65,68.37 141.97,84.86 146.85,93.72 C157.33,113.87 166.20,133.40 167.64,137.14 C169.37,141.71 170.66,146.93 170.66,151.01 C170.63,152.84 170.02,155.90 169.45,157.12 C168.35,159.27 163.41,162.17 159.74,163.35 C151.24,166.02 136.16,167.23 129.17,167.64 C116.96,168.13 73.48,168.02 61.79,167.45 C51.03,166.72 38.03,164.86 31.38,162.10 C29.89,161.46 27.32,159.96 26.56,159.22 C25.70,158.32 24.50,155.90 24.19,154.38 C23.60,151.23 24.51,144.34 25.00,142.36 Z" fill-rule="evenodd"/>
<path d="M63.00,175.00 L63.00,95.00 L133.00,95.00 L133.00,175.00 L63.00,175.00 Z"/>
</g>
</svg>
