<svg viewBox="0 0 200 200" xmlns="http://www.w3.org/2000/svg" xmlns:xlink="http://www.w3.org/1999/xlink">
<g fill="#A0A0A0">
<path d="M12.19,99.81 L34.22,138.19 L77.86,165.48 L77.86,182.47 L121.64,182.47 L121.64,165.48 L165.58,138.19 L187.31,99.81 L12.19,99.81 Z"/>
<path d="M31.28,105.00 C31.27,102.25 32.09,96.89 32.97,93.91 C34.79,87.91 42.15,74.18 47.70,66.45 C50.63,62.40 57.11,54.29 60.27,50.89 C63.54,47.40 70.09,41.57 73.37,39.23 C76.65,36.91 83.22,33.43 86.52,32.26 C89.81,31.13 96.28,30.02 99.72,30.00 C103.16,30.02 109.63,31.13 112.93,32.26 C116.22,33.43 122.79,36.91 126.08,39.23 C129.36,41.57 135.90,47.40 139.17,50.89 C145.18,57.37 157.29,74.18 160.99,81.06 C162.82,84.48 165.56,90.91 166.47,93.91 C167.35,96.89 168.17,102.25 168.16,105.00 C168.11,108.75 166.66,114.26 165.06,116.81 C163.43,119.34 158.52,123.61 155.24,125.35 C149.78,128.17 130.42,132.75 121.70,133.83 C112.68,134.93 91.77,135.01 86.52,134.67 C77.73,134.06 58.99,130.70 51.63,128.38 C47.54,127.07 40.92,123.61 38.45,121.49 C36.01,119.34 32.79,114.26 31.99,111.32 C31.59,109.76 31.31,107.07 31.28,105.00 M37.66,108.81 C37.64,105.96 38.55,99.94 39.50,96.61 C41.46,89.91 49.63,73.72 55.28,65.33 C58.12,61.14 63.87,54.20 66.75,51.50 C69.62,48.84 75.39,45.02 78.28,43.86 C81.19,42.74 86.97,42.02 89.87,42.36 C92.75,42.74 98.55,45.02 101.44,46.91 C104.32,48.84 110.07,54.20 112.94,57.64 C118.26,64.09 129.04,82.37 132.00,89.64 C133.46,93.26 135.39,99.94 135.87,103.00 C136.30,105.96 136.22,113.12 135.37,116.02 C134.36,119.30 130.31,124.63 127.27,126.69 C124.35,128.61 116.46,131.42 111.86,132.59 C103.61,134.65 86.97,135.82 78.64,135.25 C74.49,134.95 66.21,133.62 62.08,132.59 C57.48,131.42 49.60,128.61 46.67,126.69 C43.63,124.63 39.58,119.30 38.57,116.02 C38.07,114.29 37.69,111.15 37.66,108.81 Z" fill-rule="evenodd"/>
</g>
</svg>
