<svg version="1.1" viewBox="0 0 200 200" xmlns="http://www.w3.org/2000/svg" xmlns:xlink="http://www.w3.org/1999/xlink">
<g fill="#A0A0A0">
<path d="M20,40 C20,40 10,40 10,50 C10,60 10,150 10,150 C10,150 10,160 20,160 C30,160 180,160 180,160 C180,160 190,160 190,150 C190,140 190,50 190,50 C190,50 190,40 180,40 C170,40 20,40 20,40 M125,55 C125,55 115,55 115,65 C115,75 115,135 115,135 C115,135 115,145 125,145 C135,145 165,145 165,145 C165,145 175,145 175,135 C175,125 175,65 175,65 C175,65 175,55 165,55 C155,55 125,55 125,55 Z" fill-rule="evenodd"/>
</g>
</svg>
