<svg version="1.1" viewBox="0 0 200 200" xmlns="http://www.w3.org/2000/svg" xmlns:xlink="http://www.w3.org/1999/xlink">
<g fill="#A0A0A0">
<path d="M91.43,61.68 C91.43,61.68 102.33,53.45 102.33,53.45 C122.58,38.60 134.67,30.84 140.76,28.42 C144.59,26.93 151.58,25.70 154.57,26.11 C157.84,26.61 164.63,29.85 167.34,32.09 C170.16,34.48 175.07,39.64 177.82,43.09 C180.94,47.05 184.70,53.90 185.78,57.67 C186.79,61.34 186.99,67.78 186.48,71.03 C185.99,73.93 184.03,79.83 182.57,82.81 C180.17,87.61 170.55,101.38 163.39,110.46 C151.38,125.28 108.55,171.58 100.28,180.46 C91.90,171.64 70.96,149.47 58.39,136.11 C52.82,129.87 40.84,116.15 36.50,110.80 C30.01,102.69 19.94,88.03 17.50,82.96 C16.06,79.95 14.14,73.99 13.66,71.07 C13.16,67.80 13.34,61.32 14.31,57.64 C15.36,53.86 19.01,47.00 22.04,43.07 C24.71,39.63 29.55,34.47 32.34,32.09 C35.03,29.85 41.84,26.60 45.18,26.08 C48.28,25.65 55.36,26.87 59.19,28.39 C65.29,30.86 77.21,38.88 87.23,46.70 C89.99,48.85 94.69,52.52 96.65,54.04 C96.65,54.04 108.34,62.63 108.34,62.63"/>
</g>
</svg>

