<svg version="1.1" viewBox="0 0 200 200" xmlns="http://www.w3.org/2000/svg" xmlns:xlink="http://www.w3.org/1999/xlink">
<g fill="#A0A0A0">
<path d="M64.87,36.35 L80.19,30.50 L90.00,10.00 L110.00,10.00 L119.61,29.61 L134.96,36.72 L156.39,29.16 L170.53,43.30 L163.63,64.02 L163.43,64.53 L169.29,79.84 L189.79,89.65 L189.79,109.65 L169.76,119.64 L163.07,134.61 L170.63,156.04 L156.49,170.18 L135.27,163.08 L127.35,166.11 L120.01,169.11 L110.14,189.44 L90.14,189.44 L80.15,169.41 L65.18,162.72 L43.75,170.28 L29.61,156.14 L36.68,135.48 L30.68,119.66 L10.35,109.79 L10.35,89.79 L29.96,80.18 L36.91,64.76 L29.51,43.40 L43.65,29.26 L64.87,36.35 M 100 70 A 30 30 0 1 1 100 130 A 30 30 0 1 1 100 70 Z" fill-rule="evenodd"/>
</g>
</svg>