<svg version="1.1" viewBox="0 0 200 200" xmlns="http://www.w3.org/2000/svg" xmlns:xlink="http://www.w3.org/1999/xlink">
<g fill="#A0A0A0">
<path d="M20,40 C20,40 10,40 10,50 C10,60 10,150 10,150 C10,150 10,160 20,160 C30,160 180,160 180,160 C180,160 190,160 190,150 C190,140 190,50 190,50 C190,50 190,40 180,40 C170,40 20,40 20,40 M35,55 C35,55 25,55 25,65 C25,75 25,135 25,135 C25,135 25,145 35,145 C45,145 75,145 75,145 C75,145 85,145 85,135 C85,125 85,65 85,65 C85,65 85,55 75,55 C65,55 35,55 35,55 Z" fill-rule="evenodd"/>
</g>
</svg>
