<svg version="1.1" viewBox="0 0 200 200" xmlns="http://www.w3.org/2000/svg" xmlns:xlink="http://www.w3.org/1999/xlink">
<g fill="#A0A0A0">
<path d="M150.00,35.00 L180.00,35.00 L180.00,175.00 L150.00,175.00 L150.00,35.00 Z"/>
<path d="M20.00,35.00 L130.00,15.00 L130.00,175.00 L20.00,175.00 L20.00,35.00 M75.00,55.00 C75.00,55.00 115.00,55.00 115.00,105.00 C115.00,155.00 75.00,155.00 75.00,155.00 C75.00,155.00 35.00,155.00 35.00,105.00 C35.00,55.00 75.00,55.00 75.00,55.00 M75.00,65.00 C75.00,65.00 55.00,65.00 55.00,105.00 C55.00,145.00 75.00,145.00 75.00,145.00 C75.00,145.00 95.00,145.00 95.00,105.00 C95.00,65.00 75.00,65.00 75.00,65.00 Z" fill-rule="evenodd" />
</g>
</svg>
