<svg version="1.1" viewBox="0 0 200 200" xmlns="http://www.w3.org/2000/svg" xmlns:xlink="http://www.w3.org/1999/xlink">
<g fill="#A0A0A0">
<path d="M28.35,87.43 C28.35,87.43 -16.50,13.50 90.16,9.56 C183.45,12.06 199.62,47.21 173.49,92.21 C173.49,92.21 177.58,179.29 177.58,179.29 C177.58,179.29 179.63,190.90 169.73,190.22 C159.83,189.54 139.93,190.22 139.93,190.22 C99.72,180.00 78.06,178.89 29.90,189.19 C21.45,187.55 21.04,179.78 21.04,179.78 C21.04,179.78 28.35,87.43 28.35,87.43 M86.16,21.86 C0.63,24.39 43.71,84.58 43.08,87.74 C43.08,87.74 35.48,159.97 35.48,159.97 C33.26,177.70 47.51,172.00 47.51,172.00 C76.34,167.57 89.30,167.68 122.59,172.00 C141.73,177.41 136.68,157.91 136.68,157.91 C136.68,157.91 129.87,88.38 129.87,88.38 C129.87,88.38 172.00,23.12 86.16,21.86 Z" fill-rule="evenodd"/>
</g>
</svg>
