<svg version="1.1" viewBox="0 0 200 200" xmlns="http://www.w3.org/2000/svg" xmlns:xlink="http://www.w3.org/1999/xlink">
<g fill="#A0A0A0">
<path d="M26.00,130.00 L66.00,130.00 L66.00,160.00 L26.00,160.00 L26.00,130.00 M81.00,130.00 L121.00,130.00 L121.00,160.00 L81.00,160.00 L81.00,130.00 M136.00,130.00 L176.00,130.00 L176.00,160.00 L136.00,160.00 L136.00,130.00 M26.00,85.00 L66.00,85.00 L66.00,115.00 L26.00,115.00 L26.00,85.00 M81.00,85.00 L121.00,85.00 L121.00,115.00 L81.00,115.00 L81.00,85.00 M136.00,85.00 L176.00,85.00 L176.00,115.00 L136.00,115.00 L136.00,85.00 M26.00,40.00 L66.00,40.00 L66.00,70.00 L26.00,70.00 L26.00,40.00 M81.00,40.00 L121.00,40.00 L121.00,70.00 L81.00,70.00 L81.00,40.00 M136.00,40.00 L176.00,40.00 L176.00,70.00 L136.00,70.00 L136.00,40.00 M10.00,25.00 L190.00,25.00 L190.00,175.00 L10.00,175.00 L10.00,25.00 Z" fill-rule="evenodd"/>
</g>
</svg>