<svg version="1.1" viewBox="0 0 200 200" xmlns="http://www.w3.org/2000/svg" xmlns:xlink="http://www.w3.org/1999/xlink">
<g fill="#A0A0A0">
<path d="M18.28,122.98 C17.70,138.40 46.04,186.00 99.50,186.00 C151.43,186.00 178.45,143.75 183.37,118.57 C183.37,118.57 153.66,118.56 153.66,118.56 C146.28,137.32 129.29,157.50 99.50,157.50 C67.75,157.50 48.15,130.96 45.96,118.40 C45.96,118.40 18.28,122.98 18.28,122.98 Z"/>
<path d="M180.36,72.31 C172.59,54.53 152.96,15.00 99.50,15.00 C43.53,15.00 20.18,62.58 17.43,80.59 C17.43,80.59 46.39,80.50 46.39,80.50 C52.03,67.29 66.44,43.27 98.84,43.50 C136.24,43.77 152.67,74.16 154.65,84.65 C154.65,84.65 180.36,72.31 180.36,72.31 Z"/>
<path d="M14.00,176.50 L14.00,110.00 L80.50,110.00 L14.00,176.50 Z"/>
<path d="M118.50,91.00 L185.00,91.00 L185.00,24.50 L118.50,91.00 Z"/>
</g>
</svg>
