<svg version="1.1" viewBox="0 0 200 200" xmlns="http://www.w3.org/2000/svg" xmlns:xlink="http://www.w3.org/1999/xlink">
<g fill="#A0A0A0">
<path d="M70.00,60.00 L130.00,60.00 L130.00,80.00 L70.00,80.00 L70.00,60.00 Z"/>
<path d="M70.00,100.00 L100.00,100.00 L100.00,120.00 L70.00,120.00 L70.00,100.00 Z"/>
<path d="M150.00,70.00 L170.00,70.00 L170.00,100.00 L150.00,100.00 L150.00,70.00 Z"/>
<path d="M150.00,170.00 L150.00,190.00 L170.00,190.00 L170.00,170.00 L150.00,170.00 Z"/>
<path d="M80.00,170.00 L80.00,190.00 L30.00,190.00 L30.00,10.00 L170.00,10.00 L170.00,50.00 L150.00,50.00 L150.00,30.00 L50.00,30.00 L50.00,170.00 L80.00,170.00 Z"/>
<path d="M100.00,170.00 L120.00,170.00 L120.00,190.00 L100.00,190.00 L100.00,170.00 Z"/>
<path d="M150.00,120.00 L170.00,120.00 L170.00,140.00 L150.00,140.00 L150.00,120.00 Z"/>
</g>
</svg>
