<svg version="1.1" viewBox="0 0 200 200" xmlns="http://www.w3.org/2000/svg" xmlns:xlink="http://www.w3.org/1999/xlink">
<g fill="#A0A0A0">
<path d="M93.26,9.47 C93.26,9.47 89.10,17.05 89.10,17.05 C89.10,17.05 62.99,27.13 62.99,27.13 C59.69,38.98 51.26,69.05 46.13,87.27 C43.53,95.76 38.49,111.68 36.13,118.40 C32.38,128.39 26.89,138.88 23.98,141.96 C22.42,143.57 13.87,148.98 13.18,149.41 C13.18,149.41 100.20,149.54 100.20,149.54 C100.20,149.54 187.23,149.41 187.23,149.41 C185.66,148.41 179.64,144.63 179.27,144.38 C176.19,142.16 170.82,134.23 167.63,127.15 C161.65,113.67 142.47,45.22 137.42,27.13 C137.42,27.13 111.31,17.05 111.31,17.05 C111.31,17.05 107.15,9.47 107.15,9.47 C107.15,9.47 93.26,9.47 93.26,9.47 Z"/>
<path d="M100.21,162.00 C100.21,162.00 66.25,161.83 66.25,161.83 C67.17,164.15 70.08,171.54 71.17,173.49 C73.07,176.78 78.37,181.46 81.75,183.06 C84.80,184.46 92.58,186.27 96.32,186.58 C100.07,186.85 107.60,186.27 111.41,185.42 C115.50,184.46 122.01,181.46 124.38,179.43 C127.37,176.77 130.37,171.54 132.34,166.46 C132.87,165.12 133.78,162.80 134.17,161.83 C134.17,161.83 100.21,162.00 100.21,162.00 Z"/>
</g>
</svg>
