<svg version="1.1" viewBox="0 0 200 200" xmlns="http://www.w3.org/2000/svg" xmlns:xlink="http://www.w3.org/1999/xlink">
<g fill="#A0A0A0">
<path d="M101.26,187.81 C92.49,179.84 64.50,154.43 56.82,147.15 C50.43,140.80 38.30,127.80 34.24,122.80 C27.81,114.72 18.56,99.79 15.88,92.14 C13.72,85.84 12.29,70.95 12.93,64.89 C13.32,61.48 14.99,54.83 16.61,51.30 C18.34,47.64 23.04,41.30 26.22,38.32 C29.22,35.55 35.49,31.36 38.98,29.78 C42.32,28.30 49.93,26.88 53.65,26.76 C57.53,26.67 65.37,27.65 69.37,28.62 C73.09,29.54 80.02,32.22 82.51,33.67 C85.93,35.72 91.72,40.95 93.87,43.95 C95.49,46.23 99.06,52.60 100.69,56.03 C104.03,63.23 105.12,75.51 105.37,78.32 C105.37,78.32 85.34,99.74 85.34,99.74 C85.34,99.74 104.69,131.24 104.69,131.24 C104.69,131.24 91.58,142.77 91.58,142.77 C91.58,142.77 107.60,162.24 107.60,162.24 C107.60,162.24 101.26,187.81 101.26,187.81 Z"/>
<path d="M108.46,176.29 C108.46,176.29 117.50,162.17 117.50,162.17 C117.50,162.17 108.31,145.37 108.31,145.37 C108.31,145.37 123.64,133.10 123.64,133.10 C123.64,133.10 108.18,101.52 108.18,101.52 C108.18,101.52 121.04,82.76 121.04,82.76 C129.88,73.91 136.87,67.42 144.04,64.67 C147.76,63.29 155.78,62.00 159.62,62.26 C163.87,62.59 170.40,64.84 173.95,67.09 C177.33,69.30 183.25,75.00 185.06,78.37 C186.80,81.70 187.99,88.33 187.95,91.65 C187.90,94.54 186.93,100.76 186.01,104.19 C184.96,107.99 181.86,114.69 179.41,118.38 C174.71,125.38 162.21,137.64 155.98,142.73 C148.19,149.08 117.37,170.20 108.46,176.29 Z"/>
</g>
</svg>
